<svg width="344" height="344" viewBox="0 0 344 344" fill="none" xmlns="http://www.w3.org/2000/svg">
<rect width="343.04" height="343.04" rx="120" fill="#FF4C00"/>
<g filter="url(#filter0_d_245_57)">
<path fill-rule="evenodd" clip-rule="evenodd" d="M87.867 55C92.9625 55 97.0933 58.6666 97.0933 63.1897C97.0933 79.9935 104.862 96.166 118.793 108.133C132.734 120.108 151.705 126.882 171.547 126.882C191.389 126.882 210.361 120.108 224.302 108.133C238.233 96.166 246.001 79.9935 246.001 63.1897C246.001 58.6666 250.132 55 255.228 55C260.323 55 264.454 58.6666 264.454 63.1897C264.454 84.5141 254.59 104.909 237.134 119.903C219.69 134.888 196.092 143.261 171.547 143.261C147.003 143.261 123.405 134.888 105.96 119.903C88.505 104.909 78.6406 84.5141 78.6406 63.1897C78.6406 58.6666 82.7714 55 87.867 55Z" fill="white"/>
</g>
<defs>
<filter id="filter0_d_245_57" x="57.6406" y="35" width="227.813" height="130.262" filterUnits="userSpaceOnUse" color-interpolation-filters="sRGB">
<feFlood flood-opacity="0" result="BackgroundImageFix"/>
<feColorMatrix in="SourceAlpha" type="matrix" values="0 0 0 0 0 0 0 0 0 0 0 0 0 0 0 0 0 0 127 0" result="hardAlpha"/>
<feOffset dy="1"/>
<feGaussianBlur stdDeviation="10.5"/>
<feComposite in2="hardAlpha" operator="out"/>
<feColorMatrix type="matrix" values="0 0 0 0 0 0 0 0 0 0 0 0 0 0 0 0 0 0 0.12 0"/>
<feBlend mode="normal" in2="BackgroundImageFix" result="effect1_dropShadow_245_57"/>
<feBlend mode="normal" in="SourceGraphic" in2="effect1_dropShadow_245_57" result="shape"/>
</filter>
</defs>
</svg>
